<?xml version="1.0" encoding="utf-8" standalone="no"?>
<!DOCTYPE svg PUBLIC "-//W3C//DTD SVG 1.1//EN"
  "http://www.w3.org/Graphics/SVG/1.1/DTD/svg11.dtd">
<svg xmlns:xlink="http://www.w3.org/1999/xlink" width="720pt" height="432pt" viewBox="0 0 720 432" xmlns="http://www.w3.org/2000/svg" version="1.1">
 <metadata>
  <rdf:RDF xmlns:dc="http://purl.org/dc/elements/1.1/" xmlns:cc="http://creativecommons.org/ns#" xmlns:rdf="http://www.w3.org/1999/02/22-rdf-syntax-ns#">
   <cc:Work>
    <dc:type rdf:resource="http://purl.org/dc/dcmitype/StillImage"/>
    <dc:date>2022-11-30T22:16:36.999803</dc:date>
    <dc:format>image/svg+xml</dc:format>
    <dc:creator>
     <cc:Agent>
      <dc:title>Matplotlib v3.5.3, https://matplotlib.org/</dc:title>
     </cc:Agent>
    </dc:creator>
   </cc:Work>
  </rdf:RDF>
 </metadata>
 <defs>
  <style type="text/css">*{stroke-linejoin: round; stroke-linecap: butt}</style>
 </defs>
 <g id="figure_1">
  <g id="patch_1">
   <path d="M 0 432 
L 720 432 
L 720 0 
L 0 0 
z
" style="fill: #ffffff"/>
  </g>
  <g id="axes_1">
   <g id="patch_2">
    <path d="M 90 384.48 
L 648 384.48 
L 648 51.84 
L 90 51.84 
z
" style="fill: #eaeaf2"/>
   </g>
   <g id="matplotlib.axis_1">
    <g id="xtick_1">
     <g id="line2d_1">
      <path d="M 119.165205 384.48 
L 119.165205 51.84 
" clip-path="url(#p100f126e9b)" style="fill: none; stroke: #ffffff; stroke-linecap: round"/>
     </g>
     <g id="text_1">
      <!-- −2 -->
      <g style="fill: #262626" transform="translate(112.894346 401.853594)scale(0.11 -0.11)">
       <defs>
        <path id="ArialMT-2212" d="M 3381 1997 
L 356 1997 
L 356 2522 
L 3381 2522 
L 3381 1997 
z
" transform="scale(0.015625)"/>
        <path id="ArialMT-32" d="M 3222 541 
L 3222 0 
L 194 0 
Q 188 203 259 391 
Q 375 700 629 1000 
Q 884 1300 1366 1694 
Q 2113 2306 2375 2664 
Q 2638 3022 2638 3341 
Q 2638 3675 2398 3904 
Q 2159 4134 1775 4134 
Q 1369 4134 1125 3890 
Q 881 3647 878 3216 
L 300 3275 
Q 359 3922 746 4261 
Q 1134 4600 1788 4600 
Q 2447 4600 2831 4234 
Q 3216 3869 3216 3328 
Q 3216 3053 3103 2787 
Q 2991 2522 2730 2228 
Q 2469 1934 1863 1422 
Q 1356 997 1212 845 
Q 1069 694 975 541 
L 3222 541 
z
" transform="scale(0.015625)"/>
       </defs>
       <use xlink:href="#ArialMT-2212"/>
       <use xlink:href="#ArialMT-32" x="58.398438"/>
      </g>
     </g>
    </g>
    <g id="xtick_2">
     <g id="line2d_2">
      <path d="M 209.506667 384.48 
L 209.506667 51.84 
" clip-path="url(#p100f126e9b)" style="fill: none; stroke: #ffffff; stroke-linecap: round"/>
     </g>
     <g id="text_2">
      <!-- −1 -->
      <g style="fill: #262626" transform="translate(203.235807 401.853594)scale(0.11 -0.11)">
       <defs>
        <path id="ArialMT-31" d="M 2384 0 
L 1822 0 
L 1822 3584 
Q 1619 3391 1289 3197 
Q 959 3003 697 2906 
L 697 3450 
Q 1169 3672 1522 3987 
Q 1875 4303 2022 4600 
L 2384 4600 
L 2384 0 
z
" transform="scale(0.015625)"/>
       </defs>
       <use xlink:href="#ArialMT-2212"/>
       <use xlink:href="#ArialMT-31" x="58.398438"/>
      </g>
     </g>
    </g>
    <g id="xtick_3">
     <g id="line2d_3">
      <path d="M 299.848128 384.48 
L 299.848128 51.84 
" clip-path="url(#p100f126e9b)" style="fill: none; stroke: #ffffff; stroke-linecap: round"/>
     </g>
     <g id="text_3">
      <!-- 0 -->
      <g style="fill: #262626" transform="translate(296.789613 401.853594)scale(0.11 -0.11)">
       <defs>
        <path id="ArialMT-30" d="M 266 2259 
Q 266 3072 433 3567 
Q 600 4063 929 4331 
Q 1259 4600 1759 4600 
Q 2128 4600 2406 4451 
Q 2684 4303 2865 4023 
Q 3047 3744 3150 3342 
Q 3253 2941 3253 2259 
Q 3253 1453 3087 958 
Q 2922 463 2592 192 
Q 2263 -78 1759 -78 
Q 1097 -78 719 397 
Q 266 969 266 2259 
z
M 844 2259 
Q 844 1131 1108 757 
Q 1372 384 1759 384 
Q 2147 384 2411 759 
Q 2675 1134 2675 2259 
Q 2675 3391 2411 3762 
Q 2147 4134 1753 4134 
Q 1366 4134 1134 3806 
Q 844 3388 844 2259 
z
" transform="scale(0.015625)"/>
       </defs>
       <use xlink:href="#ArialMT-30"/>
      </g>
     </g>
    </g>
    <g id="xtick_4">
     <g id="line2d_4">
      <path d="M 390.18959 384.48 
L 390.18959 51.84 
" clip-path="url(#p100f126e9b)" style="fill: none; stroke: #ffffff; stroke-linecap: round"/>
     </g>
     <g id="text_4">
      <!-- 1 -->
      <g style="fill: #262626" transform="translate(387.131074 401.853594)scale(0.11 -0.11)">
       <use xlink:href="#ArialMT-31"/>
      </g>
     </g>
    </g>
    <g id="xtick_5">
     <g id="line2d_5">
      <path d="M 480.531051 384.48 
L 480.531051 51.84 
" clip-path="url(#p100f126e9b)" style="fill: none; stroke: #ffffff; stroke-linecap: round"/>
     </g>
     <g id="text_5">
      <!-- 2 -->
      <g style="fill: #262626" transform="translate(477.472536 401.853594)scale(0.11 -0.11)">
       <use xlink:href="#ArialMT-32"/>
      </g>
     </g>
    </g>
    <g id="xtick_6">
     <g id="line2d_6">
      <path d="M 570.872513 384.48 
L 570.872513 51.84 
" clip-path="url(#p100f126e9b)" style="fill: none; stroke: #ffffff; stroke-linecap: round"/>
     </g>
     <g id="text_6">
      <!-- 3 -->
      <g style="fill: #262626" transform="translate(567.813997 401.853594)scale(0.11 -0.11)">
       <defs>
        <path id="ArialMT-33" d="M 269 1209 
L 831 1284 
Q 928 806 1161 595 
Q 1394 384 1728 384 
Q 2125 384 2398 659 
Q 2672 934 2672 1341 
Q 2672 1728 2419 1979 
Q 2166 2231 1775 2231 
Q 1616 2231 1378 2169 
L 1441 2663 
Q 1497 2656 1531 2656 
Q 1891 2656 2178 2843 
Q 2466 3031 2466 3422 
Q 2466 3731 2256 3934 
Q 2047 4138 1716 4138 
Q 1388 4138 1169 3931 
Q 950 3725 888 3313 
L 325 3413 
Q 428 3978 793 4289 
Q 1159 4600 1703 4600 
Q 2078 4600 2393 4439 
Q 2709 4278 2876 4000 
Q 3044 3722 3044 3409 
Q 3044 3113 2884 2869 
Q 2725 2625 2413 2481 
Q 2819 2388 3044 2092 
Q 3269 1797 3269 1353 
Q 3269 753 2831 336 
Q 2394 -81 1725 -81 
Q 1122 -81 723 278 
Q 325 638 269 1209 
z
" transform="scale(0.015625)"/>
       </defs>
       <use xlink:href="#ArialMT-33"/>
      </g>
     </g>
    </g>
   </g>
   <g id="matplotlib.axis_2">
    <g id="ytick_1">
     <g id="line2d_7">
      <path d="M 90 365.980282 
L 648 365.980282 
" clip-path="url(#p100f126e9b)" style="fill: none; stroke: #ffffff; stroke-linecap: round"/>
     </g>
     <g id="text_7">
      <!-- −1 -->
      <g style="fill: #262626" transform="translate(67.958281 369.917079)scale(0.11 -0.11)">
       <use xlink:href="#ArialMT-2212"/>
       <use xlink:href="#ArialMT-31" x="58.398438"/>
      </g>
     </g>
    </g>
    <g id="ytick_2">
     <g id="line2d_8">
      <path d="M 90 317.938798 
L 648 317.938798 
" clip-path="url(#p100f126e9b)" style="fill: none; stroke: #ffffff; stroke-linecap: round"/>
     </g>
     <g id="text_8">
      <!-- 0 -->
      <g style="fill: #262626" transform="translate(74.382969 321.875595)scale(0.11 -0.11)">
       <use xlink:href="#ArialMT-30"/>
      </g>
     </g>
    </g>
    <g id="ytick_3">
     <g id="line2d_9">
      <path d="M 90 269.897315 
L 648 269.897315 
" clip-path="url(#p100f126e9b)" style="fill: none; stroke: #ffffff; stroke-linecap: round"/>
     </g>
     <g id="text_9">
      <!-- 1 -->
      <g style="fill: #262626" transform="translate(74.382969 273.834112)scale(0.11 -0.11)">
       <use xlink:href="#ArialMT-31"/>
      </g>
     </g>
    </g>
    <g id="ytick_4">
     <g id="line2d_10">
      <path d="M 90 221.855831 
L 648 221.855831 
" clip-path="url(#p100f126e9b)" style="fill: none; stroke: #ffffff; stroke-linecap: round"/>
     </g>
     <g id="text_10">
      <!-- 2 -->
      <g style="fill: #262626" transform="translate(74.382969 225.792628)scale(0.11 -0.11)">
       <use xlink:href="#ArialMT-32"/>
      </g>
     </g>
    </g>
    <g id="ytick_5">
     <g id="line2d_11">
      <path d="M 90 173.814348 
L 648 173.814348 
" clip-path="url(#p100f126e9b)" style="fill: none; stroke: #ffffff; stroke-linecap: round"/>
     </g>
     <g id="text_11">
      <!-- 3 -->
      <g style="fill: #262626" transform="translate(74.382969 177.751145)scale(0.11 -0.11)">
       <use xlink:href="#ArialMT-33"/>
      </g>
     </g>
    </g>
    <g id="ytick_6">
     <g id="line2d_12">
      <path d="M 90 125.772864 
L 648 125.772864 
" clip-path="url(#p100f126e9b)" style="fill: none; stroke: #ffffff; stroke-linecap: round"/>
     </g>
     <g id="text_12">
      <!-- 4 -->
      <g style="fill: #262626" transform="translate(74.382969 129.709661)scale(0.11 -0.11)">
       <defs>
        <path id="ArialMT-34" d="M 2069 0 
L 2069 1097 
L 81 1097 
L 81 1613 
L 2172 4581 
L 2631 4581 
L 2631 1613 
L 3250 1613 
L 3250 1097 
L 2631 1097 
L 2631 0 
L 2069 0 
z
M 2069 1613 
L 2069 3678 
L 634 1613 
L 2069 1613 
z
" transform="scale(0.015625)"/>
       </defs>
       <use xlink:href="#ArialMT-34"/>
      </g>
     </g>
    </g>
    <g id="ytick_7">
     <g id="line2d_13">
      <path d="M 90 77.731381 
L 648 77.731381 
" clip-path="url(#p100f126e9b)" style="fill: none; stroke: #ffffff; stroke-linecap: round"/>
     </g>
     <g id="text_13">
      <!-- 5 -->
      <g style="fill: #262626" transform="translate(74.382969 81.668178)scale(0.11 -0.11)">
       <defs>
        <path id="ArialMT-35" d="M 266 1200 
L 856 1250 
Q 922 819 1161 601 
Q 1400 384 1738 384 
Q 2144 384 2425 690 
Q 2706 997 2706 1503 
Q 2706 1984 2436 2262 
Q 2166 2541 1728 2541 
Q 1456 2541 1237 2417 
Q 1019 2294 894 2097 
L 366 2166 
L 809 4519 
L 3088 4519 
L 3088 3981 
L 1259 3981 
L 1013 2750 
Q 1425 3038 1878 3038 
Q 2478 3038 2890 2622 
Q 3303 2206 3303 1553 
Q 3303 931 2941 478 
Q 2500 -78 1738 -78 
Q 1113 -78 717 272 
Q 322 622 266 1200 
z
" transform="scale(0.015625)"/>
       </defs>
       <use xlink:href="#ArialMT-35"/>
      </g>
     </g>
    </g>
   </g>
   <g id="PathCollection_1">
    <defs>
     <path id="mb8dcbe908a" d="M 0 3 
C 0.795609 3 1.55874 2.683901 2.12132 2.12132 
C 2.683901 1.55874 3 0.795609 3 0 
C 3 -0.795609 2.683901 -1.55874 2.12132 -2.12132 
C 1.55874 -2.683901 0.795609 -3 0 -3 
C -0.795609 -3 -1.55874 -2.683901 -2.12132 -2.12132 
C -2.683901 -1.55874 -3 -0.795609 -3 0 
C -3 0.795609 -2.683901 1.55874 -2.12132 2.12132 
C -1.55874 2.683901 -0.795609 3 0 3 
z
" style="stroke: #4c72b0"/>
    </defs>
    <g clip-path="url(#p100f126e9b)">
     <use xlink:href="#mb8dcbe908a" x="250.930937" y="242.948445" style="fill: #4c72b0; stroke: #4c72b0"/>
     <use xlink:href="#mb8dcbe908a" x="238.282229" y="222.570689" style="fill: #4c72b0; stroke: #4c72b0"/>
     <use xlink:href="#mb8dcbe908a" x="337.160959" y="126.67076" style="fill: #4c72b0; stroke: #4c72b0"/>
     <use xlink:href="#mb8dcbe908a" x="138.637404" y="285.081786" style="fill: #4c72b0; stroke: #4c72b0"/>
     <use xlink:href="#mb8dcbe908a" x="314.938766" y="221.876489" style="fill: #4c72b0; stroke: #4c72b0"/>
     <use xlink:href="#mb8dcbe908a" x="296.680757" y="224.594196" style="fill: #4c72b0; stroke: #4c72b0"/>
     <use xlink:href="#mb8dcbe908a" x="311.554575" y="164.752283" style="fill: #4c72b0; stroke: #4c72b0"/>
     <use xlink:href="#mb8dcbe908a" x="396.564987" y="278.12634" style="fill: #4c72b0; stroke: #4c72b0"/>
     <use xlink:href="#mb8dcbe908a" x="220.681002" y="178.413359" style="fill: #4c72b0; stroke: #4c72b0"/>
     <use xlink:href="#mb8dcbe908a" x="162.217429" y="215.083423" style="fill: #4c72b0; stroke: #4c72b0"/>
     <use xlink:href="#mb8dcbe908a" x="248.589286" y="205.022576" style="fill: #4c72b0; stroke: #4c72b0"/>
     <use xlink:href="#mb8dcbe908a" x="320.566136" y="223.887986" style="fill: #4c72b0; stroke: #4c72b0"/>
     <use xlink:href="#mb8dcbe908a" x="470.125522" y="251.342733" style="fill: #4c72b0; stroke: #4c72b0"/>
     <use xlink:href="#mb8dcbe908a" x="333.807484" y="216.984425" style="fill: #4c72b0; stroke: #4c72b0"/>
     <use xlink:href="#mb8dcbe908a" x="325.756253" y="238.730402" style="fill: #4c72b0; stroke: #4c72b0"/>
     <use xlink:href="#mb8dcbe908a" x="281.08782" y="204.208753" style="fill: #4c72b0; stroke: #4c72b0"/>
     <use xlink:href="#mb8dcbe908a" x="333.962871" y="277.405238" style="fill: #4c72b0; stroke: #4c72b0"/>
     <use xlink:href="#mb8dcbe908a" x="498.411433" y="239.737832" style="fill: #4c72b0; stroke: #4c72b0"/>
     <use xlink:href="#mb8dcbe908a" x="372.052638" y="202.969763" style="fill: #4c72b0; stroke: #4c72b0"/>
     <use xlink:href="#mb8dcbe908a" x="384.925393" y="264.473431" style="fill: #4c72b0; stroke: #4c72b0"/>
     <use xlink:href="#mb8dcbe908a" x="283.31022" y="181.198804" style="fill: #4c72b0; stroke: #4c72b0"/>
     <use xlink:href="#mb8dcbe908a" x="355.162398" y="274.133132" style="fill: #4c72b0; stroke: #4c72b0"/>
     <use xlink:href="#mb8dcbe908a" x="373.941678" y="242.585251" style="fill: #4c72b0; stroke: #4c72b0"/>
     <use xlink:href="#mb8dcbe908a" x="341.759339" y="264.14771" style="fill: #4c72b0; stroke: #4c72b0"/>
     <use xlink:href="#mb8dcbe908a" x="285.734985" y="251.683347" style="fill: #4c72b0; stroke: #4c72b0"/>
     <use xlink:href="#mb8dcbe908a" x="290.945881" y="145.949327" style="fill: #4c72b0; stroke: #4c72b0"/>
     <use xlink:href="#mb8dcbe908a" x="222.251137" y="191.588256" style="fill: #4c72b0; stroke: #4c72b0"/>
     <use xlink:href="#mb8dcbe908a" x="622.636364" y="207.501036" style="fill: #4c72b0; stroke: #4c72b0"/>
     <use xlink:href="#mb8dcbe908a" x="385.63638" y="240.540605" style="fill: #4c72b0; stroke: #4c72b0"/>
     <use xlink:href="#mb8dcbe908a" x="347.319856" y="244.28592" style="fill: #4c72b0; stroke: #4c72b0"/>
     <use xlink:href="#mb8dcbe908a" x="427.16364" y="268.414274" style="fill: #4c72b0; stroke: #4c72b0"/>
     <use xlink:href="#mb8dcbe908a" x="462.454628" y="238.825525" style="fill: #4c72b0; stroke: #4c72b0"/>
     <use xlink:href="#mb8dcbe908a" x="358.505936" y="265.94254" style="fill: #4c72b0; stroke: #4c72b0"/>
     <use xlink:href="#mb8dcbe908a" x="191.829553" y="234.399463" style="fill: #4c72b0; stroke: #4c72b0"/>
     <use xlink:href="#mb8dcbe908a" x="429.116822" y="198.550427" style="fill: #4c72b0; stroke: #4c72b0"/>
     <use xlink:href="#mb8dcbe908a" x="391.619695" y="212.61265" style="fill: #4c72b0; stroke: #4c72b0"/>
     <use xlink:href="#mb8dcbe908a" x="490.667363" y="202.546998" style="fill: #4c72b0; stroke: #4c72b0"/>
     <use xlink:href="#mb8dcbe908a" x="214.675102" y="247.815527" style="fill: #4c72b0; stroke: #4c72b0"/>
     <use xlink:href="#mb8dcbe908a" x="434.94204" y="293.728773" style="fill: #4c72b0; stroke: #4c72b0"/>
     <use xlink:href="#mb8dcbe908a" x="353.634724" y="239.592267" style="fill: #4c72b0; stroke: #4c72b0"/>
     <use xlink:href="#mb8dcbe908a" x="375.389852" y="201.000063" style="fill: #4c72b0; stroke: #4c72b0"/>
     <use xlink:href="#mb8dcbe908a" x="283.543301" y="213.177618" style="fill: #4c72b0; stroke: #4c72b0"/>
     <use xlink:href="#mb8dcbe908a" x="338.185431" y="208.98744" style="fill: #4c72b0; stroke: #4c72b0"/>
     <use xlink:href="#mb8dcbe908a" x="260.574888" y="244.61116" style="fill: #4c72b0; stroke: #4c72b0"/>
     <use xlink:href="#mb8dcbe908a" x="208.755026" y="369.36" style="fill: #4c72b0; stroke: #4c72b0"/>
     <use xlink:href="#mb8dcbe908a" x="270.179089" y="200.300098" style="fill: #4c72b0; stroke: #4c72b0"/>
     <use xlink:href="#mb8dcbe908a" x="206.91477" y="260.753099" style="fill: #4c72b0; stroke: #4c72b0"/>
     <use xlink:href="#mb8dcbe908a" x="229.864212" y="254.189671" style="fill: #4c72b0; stroke: #4c72b0"/>
     <use xlink:href="#mb8dcbe908a" x="349.759076" y="169.112528" style="fill: #4c72b0; stroke: #4c72b0"/>
     <use xlink:href="#mb8dcbe908a" x="119.090222" y="350.223155" style="fill: #4c72b0; stroke: #4c72b0"/>
     <use xlink:href="#mb8dcbe908a" x="246.129288" y="231.001008" style="fill: #4c72b0; stroke: #4c72b0"/>
     <use xlink:href="#mb8dcbe908a" x="255.663023" y="280.002841" style="fill: #4c72b0; stroke: #4c72b0"/>
     <use xlink:href="#mb8dcbe908a" x="299.639439" y="173.118227" style="fill: #4c72b0; stroke: #4c72b0"/>
     <use xlink:href="#mb8dcbe908a" x="383.085137" y="170.598451" style="fill: #4c72b0; stroke: #4c72b0"/>
     <use xlink:href="#mb8dcbe908a" x="375.96894" y="190.247418" style="fill: #4c72b0; stroke: #4c72b0"/>
     <use xlink:href="#mb8dcbe908a" x="303.496116" y="184.520873" style="fill: #4c72b0; stroke: #4c72b0"/>
     <use xlink:href="#mb8dcbe908a" x="187.957518" y="211.044095" style="fill: #4c72b0; stroke: #4c72b0"/>
     <use xlink:href="#mb8dcbe908a" x="266.882529" y="188.737474" style="fill: #4c72b0; stroke: #4c72b0"/>
     <use xlink:href="#mb8dcbe908a" x="124.199031" y="244.083184" style="fill: #4c72b0; stroke: #4c72b0"/>
     <use xlink:href="#mb8dcbe908a" x="233.923253" y="197.647728" style="fill: #4c72b0; stroke: #4c72b0"/>
     <use xlink:href="#mb8dcbe908a" x="356.769573" y="250.583197" style="fill: #4c72b0; stroke: #4c72b0"/>
     <use xlink:href="#mb8dcbe908a" x="247.536808" y="149.823872" style="fill: #4c72b0; stroke: #4c72b0"/>
     <use xlink:href="#mb8dcbe908a" x="222.413751" y="241.335212" style="fill: #4c72b0; stroke: #4c72b0"/>
     <use xlink:href="#mb8dcbe908a" x="212.805033" y="184.911931" style="fill: #4c72b0; stroke: #4c72b0"/>
     <use xlink:href="#mb8dcbe908a" x="351.987799" y="267.951154" style="fill: #4c72b0; stroke: #4c72b0"/>
     <use xlink:href="#mb8dcbe908a" x="191.724757" y="163.567099" style="fill: #4c72b0; stroke: #4c72b0"/>
     <use xlink:href="#mb8dcbe908a" x="365.171329" y="172.094463" style="fill: #4c72b0; stroke: #4c72b0"/>
     <use xlink:href="#mb8dcbe908a" x="211.360473" y="199.527111" style="fill: #4c72b0; stroke: #4c72b0"/>
     <use xlink:href="#mb8dcbe908a" x="220.027833" y="206.418661" style="fill: #4c72b0; stroke: #4c72b0"/>
     <use xlink:href="#mb8dcbe908a" x="293.927149" y="241.35635" style="fill: #4c72b0; stroke: #4c72b0"/>
     <use xlink:href="#mb8dcbe908a" x="239.1477" y="285.308062" style="fill: #4c72b0; stroke: #4c72b0"/>
     <use xlink:href="#mb8dcbe908a" x="238.611072" y="226.325131" style="fill: #4c72b0; stroke: #4c72b0"/>
     <use xlink:href="#mb8dcbe908a" x="303.079642" y="206.934627" style="fill: #4c72b0; stroke: #4c72b0"/>
     <use xlink:href="#mb8dcbe908a" x="365.198431" y="196.013837" style="fill: #4c72b0; stroke: #4c72b0"/>
     <use xlink:href="#mb8dcbe908a" x="362.781797" y="173.687038" style="fill: #4c72b0; stroke: #4c72b0"/>
     <use xlink:href="#mb8dcbe908a" x="299.403648" y="204.855872" style="fill: #4c72b0; stroke: #4c72b0"/>
     <use xlink:href="#mb8dcbe908a" x="165.145395" y="280.127268" style="fill: #4c72b0; stroke: #4c72b0"/>
     <use xlink:href="#mb8dcbe908a" x="242.641205" y="213.899681" style="fill: #4c72b0; stroke: #4c72b0"/>
     <use xlink:href="#mb8dcbe908a" x="342.104443" y="171.098082" style="fill: #4c72b0; stroke: #4c72b0"/>
     <use xlink:href="#mb8dcbe908a" x="176.063161" y="164.762852" style="fill: #4c72b0; stroke: #4c72b0"/>
     <use xlink:href="#mb8dcbe908a" x="274.488377" y="228.693576" style="fill: #4c72b0; stroke: #4c72b0"/>
     <use xlink:href="#mb8dcbe908a" x="299.380159" y="170.404844" style="fill: #4c72b0; stroke: #4c72b0"/>
     <use xlink:href="#mb8dcbe908a" x="233.470643" y="243.618143" style="fill: #4c72b0; stroke: #4c72b0"/>
     <use xlink:href="#mb8dcbe908a" x="212.462639" y="253.220675" style="fill: #4c72b0; stroke: #4c72b0"/>
     <use xlink:href="#mb8dcbe908a" x="117.228284" y="252.849314" style="fill: #4c72b0; stroke: #4c72b0"/>
     <use xlink:href="#mb8dcbe908a" x="162.135218" y="184.20524" style="fill: #4c72b0; stroke: #4c72b0"/>
     <use xlink:href="#mb8dcbe908a" x="334.256481" y="247.903924" style="fill: #4c72b0; stroke: #4c72b0"/>
     <use xlink:href="#mb8dcbe908a" x="285.785576" y="223.228857" style="fill: #4c72b0; stroke: #4c72b0"/>
     <use xlink:href="#mb8dcbe908a" x="214.397753" y="345.033714" style="fill: #4c72b0; stroke: #4c72b0"/>
     <use xlink:href="#mb8dcbe908a" x="228.954473" y="253.972524" style="fill: #4c72b0; stroke: #4c72b0"/>
     <use xlink:href="#mb8dcbe908a" x="345.253747" y="229.574656" style="fill: #4c72b0; stroke: #4c72b0"/>
     <use xlink:href="#mb8dcbe908a" x="252.706147" y="203.366106" style="fill: #4c72b0; stroke: #4c72b0"/>
     <use xlink:href="#mb8dcbe908a" x="195.636542" y="287.696204" style="fill: #4c72b0; stroke: #4c72b0"/>
     <use xlink:href="#mb8dcbe908a" x="276.78847" y="217.075223" style="fill: #4c72b0; stroke: #4c72b0"/>
     <use xlink:href="#mb8dcbe908a" x="292.701215" y="158.888339" style="fill: #4c72b0; stroke: #4c72b0"/>
     <use xlink:href="#mb8dcbe908a" x="301.144528" y="277.328852" style="fill: #4c72b0; stroke: #4c72b0"/>
     <use xlink:href="#mb8dcbe908a" x="257.530381" y="174.213573" style="fill: #4c72b0; stroke: #4c72b0"/>
     <use xlink:href="#mb8dcbe908a" x="451.177304" y="210.131788" style="fill: #4c72b0; stroke: #4c72b0"/>
     <use xlink:href="#mb8dcbe908a" x="305.774528" y="211.473586" style="fill: #4c72b0; stroke: #4c72b0"/>
     <use xlink:href="#mb8dcbe908a" x="312.476058" y="134.845979" style="fill: #4c72b0; stroke: #4c72b0"/>
     <use xlink:href="#mb8dcbe908a" x="341.369967" y="210.770259" style="fill: #4c72b0; stroke: #4c72b0"/>
     <use xlink:href="#mb8dcbe908a" x="298.702598" y="300.242718" style="fill: #4c72b0; stroke: #4c72b0"/>
     <use xlink:href="#mb8dcbe908a" x="281.707563" y="239.099361" style="fill: #4c72b0; stroke: #4c72b0"/>
     <use xlink:href="#mb8dcbe908a" x="359.141036" y="259.900843" style="fill: #4c72b0; stroke: #4c72b0"/>
     <use xlink:href="#mb8dcbe908a" x="199.565492" y="228.489399" style="fill: #4c72b0; stroke: #4c72b0"/>
     <use xlink:href="#mb8dcbe908a" x="252.638391" y="225.284072" style="fill: #4c72b0; stroke: #4c72b0"/>
     <use xlink:href="#mb8dcbe908a" x="243.892434" y="196.546617" style="fill: #4c72b0; stroke: #4c72b0"/>
     <use xlink:href="#mb8dcbe908a" x="324.491472" y="283.908613" style="fill: #4c72b0; stroke: #4c72b0"/>
     <use xlink:href="#mb8dcbe908a" x="321.783035" y="280.872872" style="fill: #4c72b0; stroke: #4c72b0"/>
     <use xlink:href="#mb8dcbe908a" x="286.249931" y="197.849502" style="fill: #4c72b0; stroke: #4c72b0"/>
     <use xlink:href="#mb8dcbe908a" x="151.193963" y="234.093919" style="fill: #4c72b0; stroke: #4c72b0"/>
     <use xlink:href="#mb8dcbe908a" x="275.436058" y="265.707137" style="fill: #4c72b0; stroke: #4c72b0"/>
     <use xlink:href="#mb8dcbe908a" x="303.829476" y="173.093245" style="fill: #4c72b0; stroke: #4c72b0"/>
     <use xlink:href="#mb8dcbe908a" x="326.894555" y="265.609132" style="fill: #4c72b0; stroke: #4c72b0"/>
     <use xlink:href="#mb8dcbe908a" x="214.154735" y="196.00615" style="fill: #4c72b0; stroke: #4c72b0"/>
     <use xlink:href="#mb8dcbe908a" x="122.586436" y="138.654708" style="fill: #4c72b0; stroke: #4c72b0"/>
     <use xlink:href="#mb8dcbe908a" x="297.512801" y="223.530557" style="fill: #4c72b0; stroke: #4c72b0"/>
     <use xlink:href="#mb8dcbe908a" x="219.019623" y="224.953546" style="fill: #4c72b0; stroke: #4c72b0"/>
     <use xlink:href="#mb8dcbe908a" x="261.245222" y="252.183459" style="fill: #4c72b0; stroke: #4c72b0"/>
     <use xlink:href="#mb8dcbe908a" x="285.221846" y="229.840326" style="fill: #4c72b0; stroke: #4c72b0"/>
     <use xlink:href="#mb8dcbe908a" x="272.278624" y="274.495846" style="fill: #4c72b0; stroke: #4c72b0"/>
     <use xlink:href="#mb8dcbe908a" x="316.927182" y="186.896044" style="fill: #4c72b0; stroke: #4c72b0"/>
     <use xlink:href="#mb8dcbe908a" x="209.413615" y="318.606575" style="fill: #4c72b0; stroke: #4c72b0"/>
     <use xlink:href="#mb8dcbe908a" x="246.834855" y="187.607058" style="fill: #4c72b0; stroke: #4c72b0"/>
     <use xlink:href="#mb8dcbe908a" x="175.389214" y="221.409046" style="fill: #4c72b0; stroke: #4c72b0"/>
     <use xlink:href="#mb8dcbe908a" x="411.174105" y="203.576047" style="fill: #4c72b0; stroke: #4c72b0"/>
     <use xlink:href="#mb8dcbe908a" x="344.413571" y="186.180706" style="fill: #4c72b0; stroke: #4c72b0"/>
     <use xlink:href="#mb8dcbe908a" x="443.965345" y="240.008786" style="fill: #4c72b0; stroke: #4c72b0"/>
     <use xlink:href="#mb8dcbe908a" x="277.335939" y="256.18051" style="fill: #4c72b0; stroke: #4c72b0"/>
     <use xlink:href="#mb8dcbe908a" x="469.948453" y="164.215179" style="fill: #4c72b0; stroke: #4c72b0"/>
     <use xlink:href="#mb8dcbe908a" x="412.493993" y="270.467567" style="fill: #4c72b0; stroke: #4c72b0"/>
     <use xlink:href="#mb8dcbe908a" x="490.969104" y="230.437962" style="fill: #4c72b0; stroke: #4c72b0"/>
     <use xlink:href="#mb8dcbe908a" x="271.851309" y="171.493464" style="fill: #4c72b0; stroke: #4c72b0"/>
     <use xlink:href="#mb8dcbe908a" x="288.074829" y="259.234027" style="fill: #4c72b0; stroke: #4c72b0"/>
     <use xlink:href="#mb8dcbe908a" x="284.164851" y="222.718656" style="fill: #4c72b0; stroke: #4c72b0"/>
     <use xlink:href="#mb8dcbe908a" x="251.530804" y="267.695093" style="fill: #4c72b0; stroke: #4c72b0"/>
     <use xlink:href="#mb8dcbe908a" x="334.635915" y="295.078258" style="fill: #4c72b0; stroke: #4c72b0"/>
     <use xlink:href="#mb8dcbe908a" x="349.468176" y="265.908911" style="fill: #4c72b0; stroke: #4c72b0"/>
     <use xlink:href="#mb8dcbe908a" x="204.491812" y="173.948864" style="fill: #4c72b0; stroke: #4c72b0"/>
     <use xlink:href="#mb8dcbe908a" x="283.665262" y="243.763228" style="fill: #4c72b0; stroke: #4c72b0"/>
     <use xlink:href="#mb8dcbe908a" x="247.982192" y="179.370826" style="fill: #4c72b0; stroke: #4c72b0"/>
     <use xlink:href="#mb8dcbe908a" x="257.430102" y="267.904554" style="fill: #4c72b0; stroke: #4c72b0"/>
     <use xlink:href="#mb8dcbe908a" x="264.370133" y="250.72492" style="fill: #4c72b0; stroke: #4c72b0"/>
     <use xlink:href="#mb8dcbe908a" x="267.644107" y="229.489623" style="fill: #4c72b0; stroke: #4c72b0"/>
     <use xlink:href="#mb8dcbe908a" x="289.041483" y="281.573317" style="fill: #4c72b0; stroke: #4c72b0"/>
     <use xlink:href="#mb8dcbe908a" x="177.248441" y="227.384445" style="fill: #4c72b0; stroke: #4c72b0"/>
     <use xlink:href="#mb8dcbe908a" x="201.313599" y="183.479334" style="fill: #4c72b0; stroke: #4c72b0"/>
     <use xlink:href="#mb8dcbe908a" x="175.359401" y="194.186339" style="fill: #4c72b0; stroke: #4c72b0"/>
     <use xlink:href="#mb8dcbe908a" x="215.440294" y="195.407553" style="fill: #4c72b0; stroke: #4c72b0"/>
     <use xlink:href="#mb8dcbe908a" x="226.488151" y="286.46442" style="fill: #4c72b0; stroke: #4c72b0"/>
     <use xlink:href="#mb8dcbe908a" x="263.683538" y="190.133079" style="fill: #4c72b0; stroke: #4c72b0"/>
     <use xlink:href="#mb8dcbe908a" x="210.180614" y="211.923735" style="fill: #4c72b0; stroke: #4c72b0"/>
     <use xlink:href="#mb8dcbe908a" x="145.029062" y="194.787338" style="fill: #4c72b0; stroke: #4c72b0"/>
     <use xlink:href="#mb8dcbe908a" x="197.175961" y="211.233379" style="fill: #4c72b0; stroke: #4c72b0"/>
     <use xlink:href="#mb8dcbe908a" x="289.957545" y="217.324559" style="fill: #4c72b0; stroke: #4c72b0"/>
     <use xlink:href="#mb8dcbe908a" x="217.042048" y="224.178637" style="fill: #4c72b0; stroke: #4c72b0"/>
     <use xlink:href="#mb8dcbe908a" x="157.871101" y="106.555791" style="fill: #4c72b0; stroke: #4c72b0"/>
     <use xlink:href="#mb8dcbe908a" x="202.587414" y="203.239276" style="fill: #4c72b0; stroke: #4c72b0"/>
     <use xlink:href="#mb8dcbe908a" x="392.737219" y="164.62113" style="fill: #4c72b0; stroke: #4c72b0"/>
     <use xlink:href="#mb8dcbe908a" x="373.96336" y="265.589915" style="fill: #4c72b0; stroke: #4c72b0"/>
     <use xlink:href="#mb8dcbe908a" x="367.755095" y="191.450376" style="fill: #4c72b0; stroke: #4c72b0"/>
     <use xlink:href="#mb8dcbe908a" x="381.973937" y="301.101699" style="fill: #4c72b0; stroke: #4c72b0"/>
     <use xlink:href="#mb8dcbe908a" x="283.528847" y="198.663805" style="fill: #4c72b0; stroke: #4c72b0"/>
     <use xlink:href="#mb8dcbe908a" x="434.888738" y="221.340346" style="fill: #4c72b0; stroke: #4c72b0"/>
     <use xlink:href="#mb8dcbe908a" x="286.211085" y="155.274659" style="fill: #4c72b0; stroke: #4c72b0"/>
     <use xlink:href="#mb8dcbe908a" x="305.648953" y="261.358421" style="fill: #4c72b0; stroke: #4c72b0"/>
     <use xlink:href="#mb8dcbe908a" x="242.044047" y="81.81875" style="fill: #4c72b0; stroke: #4c72b0"/>
     <use xlink:href="#mb8dcbe908a" x="333.339515" y="165.687651" style="fill: #4c72b0; stroke: #4c72b0"/>
     <use xlink:href="#mb8dcbe908a" x="302.759834" y="149.943976" style="fill: #4c72b0; stroke: #4c72b0"/>
     <use xlink:href="#mb8dcbe908a" x="300.851822" y="192.051856" style="fill: #4c72b0; stroke: #4c72b0"/>
     <use xlink:href="#mb8dcbe908a" x="396.868534" y="262.941869" style="fill: #4c72b0; stroke: #4c72b0"/>
     <use xlink:href="#mb8dcbe908a" x="538.186069" y="238.077519" style="fill: #4c72b0; stroke: #4c72b0"/>
     <use xlink:href="#mb8dcbe908a" x="367.232921" y="167.913412" style="fill: #4c72b0; stroke: #4c72b0"/>
     <use xlink:href="#mb8dcbe908a" x="331.990717" y="180.481065" style="fill: #4c72b0; stroke: #4c72b0"/>
     <use xlink:href="#mb8dcbe908a" x="342.674498" y="230.327947" style="fill: #4c72b0; stroke: #4c72b0"/>
     <use xlink:href="#mb8dcbe908a" x="367.498525" y="284.711867" style="fill: #4c72b0; stroke: #4c72b0"/>
     <use xlink:href="#mb8dcbe908a" x="338.467296" y="248.193614" style="fill: #4c72b0; stroke: #4c72b0"/>
     <use xlink:href="#mb8dcbe908a" x="399.627562" y="286.389476" style="fill: #4c72b0; stroke: #4c72b0"/>
     <use xlink:href="#mb8dcbe908a" x="303.87013" y="299.474534" style="fill: #4c72b0; stroke: #4c72b0"/>
     <use xlink:href="#mb8dcbe908a" x="285.727758" y="229.803334" style="fill: #4c72b0; stroke: #4c72b0"/>
     <use xlink:href="#mb8dcbe908a" x="288.705412" y="287.800934" style="fill: #4c72b0; stroke: #4c72b0"/>
     <use xlink:href="#mb8dcbe908a" x="309.202083" y="193.889443" style="fill: #4c72b0; stroke: #4c72b0"/>
     <use xlink:href="#mb8dcbe908a" x="317.761937" y="285.824988" style="fill: #4c72b0; stroke: #4c72b0"/>
     <use xlink:href="#mb8dcbe908a" x="251.594947" y="231.739406" style="fill: #4c72b0; stroke: #4c72b0"/>
     <use xlink:href="#mb8dcbe908a" x="395.212575" y="292.562806" style="fill: #4c72b0; stroke: #4c72b0"/>
     <use xlink:href="#mb8dcbe908a" x="218.136986" y="233.293067" style="fill: #4c72b0; stroke: #4c72b0"/>
     <use xlink:href="#mb8dcbe908a" x="272.643604" y="314.84925" style="fill: #4c72b0; stroke: #4c72b0"/>
     <use xlink:href="#mb8dcbe908a" x="440.779905" y="293.787864" style="fill: #4c72b0; stroke: #4c72b0"/>
     <use xlink:href="#mb8dcbe908a" x="190.853865" y="248.464568" style="fill: #4c72b0; stroke: #4c72b0"/>
     <use xlink:href="#mb8dcbe908a" x="281.394078" y="242.407017" style="fill: #4c72b0; stroke: #4c72b0"/>
     <use xlink:href="#mb8dcbe908a" x="123.440163" y="186.53285" style="fill: #4c72b0; stroke: #4c72b0"/>
     <use xlink:href="#mb8dcbe908a" x="218.132469" y="188.013969" style="fill: #4c72b0; stroke: #4c72b0"/>
     <use xlink:href="#mb8dcbe908a" x="255.595267" y="157.943363" style="fill: #4c72b0; stroke: #4c72b0"/>
     <use xlink:href="#mb8dcbe908a" x="265.572578" y="292.509" style="fill: #4c72b0; stroke: #4c72b0"/>
     <use xlink:href="#mb8dcbe908a" x="224.22058" y="189.848193" style="fill: #4c72b0; stroke: #4c72b0"/>
     <use xlink:href="#mb8dcbe908a" x="115.363636" y="222.884399" style="fill: #4c72b0; stroke: #4c72b0"/>
     <use xlink:href="#mb8dcbe908a" x="209.256421" y="184.006349" style="fill: #4c72b0; stroke: #4c72b0"/>
     <use xlink:href="#mb8dcbe908a" x="329.059136" y="214.603009" style="fill: #4c72b0; stroke: #4c72b0"/>
     <use xlink:href="#mb8dcbe908a" x="371.887313" y="316.298662" style="fill: #4c72b0; stroke: #4c72b0"/>
     <use xlink:href="#mb8dcbe908a" x="339.142147" y="331.020975" style="fill: #4c72b0; stroke: #4c72b0"/>
     <use xlink:href="#mb8dcbe908a" x="340.142227" y="289.812912" style="fill: #4c72b0; stroke: #4c72b0"/>
     <use xlink:href="#mb8dcbe908a" x="342.828982" y="293.907487" style="fill: #4c72b0; stroke: #4c72b0"/>
     <use xlink:href="#mb8dcbe908a" x="309.147878" y="210.445499" style="fill: #4c72b0; stroke: #4c72b0"/>
     <use xlink:href="#mb8dcbe908a" x="379.298023" y="214.282572" style="fill: #4c72b0; stroke: #4c72b0"/>
     <use xlink:href="#mb8dcbe908a" x="399.071962" y="241.94678" style="fill: #4c72b0; stroke: #4c72b0"/>
     <use xlink:href="#mb8dcbe908a" x="443.647343" y="346.631574" style="fill: #4c72b0; stroke: #4c72b0"/>
     <use xlink:href="#mb8dcbe908a" x="410.015927" y="368.810405" style="fill: #4c72b0; stroke: #4c72b0"/>
     <use xlink:href="#mb8dcbe908a" x="351.045538" y="145.564995" style="fill: #4c72b0; stroke: #4c72b0"/>
     <use xlink:href="#mb8dcbe908a" x="374.519863" y="76.389102" style="fill: #4c72b0; stroke: #4c72b0"/>
     <use xlink:href="#mb8dcbe908a" x="277.774999" y="183.699364" style="fill: #4c72b0; stroke: #4c72b0"/>
     <use xlink:href="#mb8dcbe908a" x="249.433979" y="226.635479" style="fill: #4c72b0; stroke: #4c72b0"/>
     <use xlink:href="#mb8dcbe908a" x="286.939237" y="217.181395" style="fill: #4c72b0; stroke: #4c72b0"/>
     <use xlink:href="#mb8dcbe908a" x="366.795668" y="66.96" style="fill: #4c72b0; stroke: #4c72b0"/>
     <use xlink:href="#mb8dcbe908a" x="345.329634" y="304.757656" style="fill: #4c72b0; stroke: #4c72b0"/>
     <use xlink:href="#mb8dcbe908a" x="362.25872" y="310.003306" style="fill: #4c72b0; stroke: #4c72b0"/>
     <use xlink:href="#mb8dcbe908a" x="267.455294" y="183.242969" style="fill: #4c72b0; stroke: #4c72b0"/>
     <use xlink:href="#mb8dcbe908a" x="356.831005" y="254.679214" style="fill: #4c72b0; stroke: #4c72b0"/>
     <use xlink:href="#mb8dcbe908a" x="431.412399" y="270.858144" style="fill: #4c72b0; stroke: #4c72b0"/>
     <use xlink:href="#mb8dcbe908a" x="182.390677" y="198.71617" style="fill: #4c72b0; stroke: #4c72b0"/>
     <use xlink:href="#mb8dcbe908a" x="368.22216" y="243.31356" style="fill: #4c72b0; stroke: #4c72b0"/>
     <use xlink:href="#mb8dcbe908a" x="261.653565" y="181.858894" style="fill: #4c72b0; stroke: #4c72b0"/>
     <use xlink:href="#mb8dcbe908a" x="202.040848" y="73.623354" style="fill: #4c72b0; stroke: #4c72b0"/>
     <use xlink:href="#mb8dcbe908a" x="293.025541" y="84.472082" style="fill: #4c72b0; stroke: #4c72b0"/>
     <use xlink:href="#mb8dcbe908a" x="288.985471" y="178.076588" style="fill: #4c72b0; stroke: #4c72b0"/>
     <use xlink:href="#mb8dcbe908a" x="302.225916" y="201.034172" style="fill: #4c72b0; stroke: #4c72b0"/>
     <use xlink:href="#mb8dcbe908a" x="305.302946" y="208.461385" style="fill: #4c72b0; stroke: #4c72b0"/>
     <use xlink:href="#mb8dcbe908a" x="361.593807" y="254.565356" style="fill: #4c72b0; stroke: #4c72b0"/>
     <use xlink:href="#mb8dcbe908a" x="354.153284" y="106.266581" style="fill: #4c72b0; stroke: #4c72b0"/>
     <use xlink:href="#mb8dcbe908a" x="367.25641" y="237.466911" style="fill: #4c72b0; stroke: #4c72b0"/>
     <use xlink:href="#mb8dcbe908a" x="356.810227" y="191.653112" style="fill: #4c72b0; stroke: #4c72b0"/>
     <use xlink:href="#mb8dcbe908a" x="334.967468" y="227.546825" style="fill: #4c72b0; stroke: #4c72b0"/>
     <use xlink:href="#mb8dcbe908a" x="395.097841" y="230.408176" style="fill: #4c72b0; stroke: #4c72b0"/>
     <use xlink:href="#mb8dcbe908a" x="418.324631" y="260.994747" style="fill: #4c72b0; stroke: #4c72b0"/>
     <use xlink:href="#mb8dcbe908a" x="234.339728" y="116.617119" style="fill: #4c72b0; stroke: #4c72b0"/>
     <use xlink:href="#mb8dcbe908a" x="353.462172" y="186.931114" style="fill: #4c72b0; stroke: #4c72b0"/>
     <use xlink:href="#mb8dcbe908a" x="168.181772" y="195.28745" style="fill: #4c72b0; stroke: #4c72b0"/>
     <use xlink:href="#mb8dcbe908a" x="319.849728" y="198.743074" style="fill: #4c72b0; stroke: #4c72b0"/>
     <use xlink:href="#mb8dcbe908a" x="184.12433" y="215.235715" style="fill: #4c72b0; stroke: #4c72b0"/>
     <use xlink:href="#mb8dcbe908a" x="218.721496" y="248.818153" style="fill: #4c72b0; stroke: #4c72b0"/>
     <use xlink:href="#mb8dcbe908a" x="259.056248" y="268.041953" style="fill: #4c72b0; stroke: #4c72b0"/>
     <use xlink:href="#mb8dcbe908a" x="267.93591" y="269.494247" style="fill: #4c72b0; stroke: #4c72b0"/>
     <use xlink:href="#mb8dcbe908a" x="297.93831" y="152.319147" style="fill: #4c72b0; stroke: #4c72b0"/>
     <use xlink:href="#mb8dcbe908a" x="331.691687" y="232.620487" style="fill: #4c72b0; stroke: #4c72b0"/>
     <use xlink:href="#mb8dcbe908a" x="261.295813" y="276.918097" style="fill: #4c72b0; stroke: #4c72b0"/>
     <use xlink:href="#mb8dcbe908a" x="341.968028" y="195.613171" style="fill: #4c72b0; stroke: #4c72b0"/>
     <use xlink:href="#mb8dcbe908a" x="246.992049" y="239.116175" style="fill: #4c72b0; stroke: #4c72b0"/>
     <use xlink:href="#mb8dcbe908a" x="240.081831" y="148.195746" style="fill: #4c72b0; stroke: #4c72b0"/>
     <use xlink:href="#mb8dcbe908a" x="288.503951" y="242.882628" style="fill: #4c72b0; stroke: #4c72b0"/>
     <use xlink:href="#mb8dcbe908a" x="244.37305" y="200.272714" style="fill: #4c72b0; stroke: #4c72b0"/>
     <use xlink:href="#mb8dcbe908a" x="417.64978" y="241.475012" style="fill: #4c72b0; stroke: #4c72b0"/>
     <use xlink:href="#mb8dcbe908a" x="225.876539" y="242.73466" style="fill: #4c72b0; stroke: #4c72b0"/>
     <use xlink:href="#mb8dcbe908a" x="366.314148" y="234.968274" style="fill: #4c72b0; stroke: #4c72b0"/>
     <use xlink:href="#mb8dcbe908a" x="268.882689" y="205.183515" style="fill: #4c72b0; stroke: #4c72b0"/>
     <use xlink:href="#mb8dcbe908a" x="418.67877" y="287.877801" style="fill: #4c72b0; stroke: #4c72b0"/>
     <use xlink:href="#mb8dcbe908a" x="313.634235" y="234.835679" style="fill: #4c72b0; stroke: #4c72b0"/>
     <use xlink:href="#mb8dcbe908a" x="295.56775" y="186.391608" style="fill: #4c72b0; stroke: #4c72b0"/>
     <use xlink:href="#mb8dcbe908a" x="320.687193" y="148.102546" style="fill: #4c72b0; stroke: #4c72b0"/>
     <use xlink:href="#mb8dcbe908a" x="247.456404" y="183.375084" style="fill: #4c72b0; stroke: #4c72b0"/>
     <use xlink:href="#mb8dcbe908a" x="212.351519" y="228.094498" style="fill: #4c72b0; stroke: #4c72b0"/>
     <use xlink:href="#mb8dcbe908a" x="278.723584" y="175.147019" style="fill: #4c72b0; stroke: #4c72b0"/>
     <use xlink:href="#mb8dcbe908a" x="424.090223" y="264.064118" style="fill: #4c72b0; stroke: #4c72b0"/>
     <use xlink:href="#mb8dcbe908a" x="331.051166" y="260.61522" style="fill: #4c72b0; stroke: #4c72b0"/>
     <use xlink:href="#mb8dcbe908a" x="235.314512" y="140.270823" style="fill: #4c72b0; stroke: #4c72b0"/>
     <use xlink:href="#mb8dcbe908a" x="338.262221" y="188.88304" style="fill: #4c72b0; stroke: #4c72b0"/>
     <use xlink:href="#mb8dcbe908a" x="371.020938" y="236.954789" style="fill: #4c72b0; stroke: #4c72b0"/>
     <use xlink:href="#mb8dcbe908a" x="427.765314" y="245.879456" style="fill: #4c72b0; stroke: #4c72b0"/>
     <use xlink:href="#mb8dcbe908a" x="337.884594" y="227.041429" style="fill: #4c72b0; stroke: #4c72b0"/>
     <use xlink:href="#mb8dcbe908a" x="413.905127" y="241.644118" style="fill: #4c72b0; stroke: #4c72b0"/>
     <use xlink:href="#mb8dcbe908a" x="262.581372" y="245.991873" style="fill: #4c72b0; stroke: #4c72b0"/>
     <use xlink:href="#mb8dcbe908a" x="372.584749" y="187.14682" style="fill: #4c72b0; stroke: #4c72b0"/>
     <use xlink:href="#mb8dcbe908a" x="282.961502" y="217.619533" style="fill: #4c72b0; stroke: #4c72b0"/>
     <use xlink:href="#mb8dcbe908a" x="326.308239" y="221.284138" style="fill: #4c72b0; stroke: #4c72b0"/>
     <use xlink:href="#mb8dcbe908a" x="386.696989" y="254.317462" style="fill: #4c72b0; stroke: #4c72b0"/>
     <use xlink:href="#mb8dcbe908a" x="320.877814" y="163.328814" style="fill: #4c72b0; stroke: #4c72b0"/>
     <use xlink:href="#mb8dcbe908a" x="340.310262" y="261.350254" style="fill: #4c72b0; stroke: #4c72b0"/>
     <use xlink:href="#mb8dcbe908a" x="325.408438" y="116.315418" style="fill: #4c72b0; stroke: #4c72b0"/>
     <use xlink:href="#mb8dcbe908a" x="418.945277" y="166.689315" style="fill: #4c72b0; stroke: #4c72b0"/>
     <use xlink:href="#mb8dcbe908a" x="242.495755" y="149.031188" style="fill: #4c72b0; stroke: #4c72b0"/>
     <use xlink:href="#mb8dcbe908a" x="397.618368" y="176.141477" style="fill: #4c72b0; stroke: #4c72b0"/>
     <use xlink:href="#mb8dcbe908a" x="439.440141" y="254.827662" style="fill: #4c72b0; stroke: #4c72b0"/>
     <use xlink:href="#mb8dcbe908a" x="312.332415" y="281.315334" style="fill: #4c72b0; stroke: #4c72b0"/>
     <use xlink:href="#mb8dcbe908a" x="357.019819" y="138.006148" style="fill: #4c72b0; stroke: #4c72b0"/>
     <use xlink:href="#mb8dcbe908a" x="368.93134" y="142.497066" style="fill: #4c72b0; stroke: #4c72b0"/>
     <use xlink:href="#mb8dcbe908a" x="302.299995" y="206.696341" style="fill: #4c72b0; stroke: #4c72b0"/>
     <use xlink:href="#mb8dcbe908a" x="375.993333" y="277.415327" style="fill: #4c72b0; stroke: #4c72b0"/>
     <use xlink:href="#mb8dcbe908a" x="261.763782" y="274.244108" style="fill: #4c72b0; stroke: #4c72b0"/>
     <use xlink:href="#mb8dcbe908a" x="267.646818" y="214.104818" style="fill: #4c72b0; stroke: #4c72b0"/>
     <use xlink:href="#mb8dcbe908a" x="172.710589" y="186.036101" style="fill: #4c72b0; stroke: #4c72b0"/>
     <use xlink:href="#mb8dcbe908a" x="313.166266" y="261.088909" style="fill: #4c72b0; stroke: #4c72b0"/>
     <use xlink:href="#mb8dcbe908a" x="278.960279" y="198.898248" style="fill: #4c72b0; stroke: #4c72b0"/>
     <use xlink:href="#mb8dcbe908a" x="371.365139" y="279.111671" style="fill: #4c72b0; stroke: #4c72b0"/>
     <use xlink:href="#mb8dcbe908a" x="277.045943" y="275.423046" style="fill: #4c72b0; stroke: #4c72b0"/>
     <use xlink:href="#mb8dcbe908a" x="303.324468" y="281.664596" style="fill: #4c72b0; stroke: #4c72b0"/>
     <use xlink:href="#mb8dcbe908a" x="334.506727" y="260.849182" style="fill: #4c72b0; stroke: #4c72b0"/>
     <use xlink:href="#mb8dcbe908a" x="534.355591" y="208.098672" style="fill: #4c72b0; stroke: #4c72b0"/>
     <use xlink:href="#mb8dcbe908a" x="431.329285" y="185.864593" style="fill: #4c72b0; stroke: #4c72b0"/>
     <use xlink:href="#mb8dcbe908a" x="185.672782" y="227.967188" style="fill: #4c72b0; stroke: #4c72b0"/>
     <use xlink:href="#mb8dcbe908a" x="230.154208" y="231.438186" style="fill: #4c72b0; stroke: #4c72b0"/>
     <use xlink:href="#mb8dcbe908a" x="387.517289" y="114.289028" style="fill: #4c72b0; stroke: #4c72b0"/>
     <use xlink:href="#mb8dcbe908a" x="301.090323" y="194.28002" style="fill: #4c72b0; stroke: #4c72b0"/>
     <use xlink:href="#mb8dcbe908a" x="286.513729" y="168.370767" style="fill: #4c72b0; stroke: #4c72b0"/>
     <use xlink:href="#mb8dcbe908a" x="450.298281" y="170.257837" style="fill: #4c72b0; stroke: #4c72b0"/>
     <use xlink:href="#mb8dcbe908a" x="315.117642" y="238.146218" style="fill: #4c72b0; stroke: #4c72b0"/>
     <use xlink:href="#mb8dcbe908a" x="385.436726" y="206.283665" style="fill: #4c72b0; stroke: #4c72b0"/>
     <use xlink:href="#mb8dcbe908a" x="321.604159" y="215.659921" style="fill: #4c72b0; stroke: #4c72b0"/>
     <use xlink:href="#mb8dcbe908a" x="330.512731" y="200.489382" style="fill: #4c72b0; stroke: #4c72b0"/>
     <use xlink:href="#mb8dcbe908a" x="189.570113" y="162.38624" style="fill: #4c72b0; stroke: #4c72b0"/>
     <use xlink:href="#mb8dcbe908a" x="266.574465" y="216.924373" style="fill: #4c72b0; stroke: #4c72b0"/>
     <use xlink:href="#mb8dcbe908a" x="165.719064" y="257.009706" style="fill: #4c72b0; stroke: #4c72b0"/>
     <use xlink:href="#mb8dcbe908a" x="374.830638" y="201.006788" style="fill: #4c72b0; stroke: #4c72b0"/>
     <use xlink:href="#mb8dcbe908a" x="167.013657" y="262.357204" style="fill: #4c72b0; stroke: #4c72b0"/>
     <use xlink:href="#mb8dcbe908a" x="350.144834" y="197.463729" style="fill: #4c72b0; stroke: #4c72b0"/>
     <use xlink:href="#mb8dcbe908a" x="276.551776" y="224.497632" style="fill: #4c72b0; stroke: #4c72b0"/>
    </g>
   </g>
   <g id="patch_3">
    <path d="M 90 384.48 
L 90 51.84 
" style="fill: none; stroke: #ffffff; stroke-width: 1.25; stroke-linejoin: miter; stroke-linecap: square"/>
   </g>
   <g id="patch_4">
    <path d="M 648 384.48 
L 648 51.84 
" style="fill: none; stroke: #ffffff; stroke-width: 1.25; stroke-linejoin: miter; stroke-linecap: square"/>
   </g>
   <g id="patch_5">
    <path d="M 90 384.48 
L 648 384.48 
" style="fill: none; stroke: #ffffff; stroke-width: 1.25; stroke-linejoin: miter; stroke-linecap: square"/>
   </g>
   <g id="patch_6">
    <path d="M 90 51.84 
L 648 51.84 
" style="fill: none; stroke: #ffffff; stroke-width: 1.25; stroke-linejoin: miter; stroke-linecap: square"/>
   </g>
  </g>
 </g>
 <defs>
  <clipPath id="p100f126e9b">
   <rect x="90" y="51.84" width="558" height="332.64"/>
  </clipPath>
 </defs>
</svg>
