<?xml version="1.0" encoding="utf-8" standalone="no"?>
<!DOCTYPE svg PUBLIC "-//W3C//DTD SVG 1.1//EN"
  "http://www.w3.org/Graphics/SVG/1.1/DTD/svg11.dtd">
<svg xmlns:xlink="http://www.w3.org/1999/xlink" width="720pt" height="432pt" viewBox="0 0 720 432" xmlns="http://www.w3.org/2000/svg" version="1.1">
 <metadata>
  <rdf:RDF xmlns:dc="http://purl.org/dc/elements/1.1/" xmlns:cc="http://creativecommons.org/ns#" xmlns:rdf="http://www.w3.org/1999/02/22-rdf-syntax-ns#">
   <cc:Work>
    <dc:type rdf:resource="http://purl.org/dc/dcmitype/StillImage"/>
    <dc:date>2022-12-01T09:21:13.053051</dc:date>
    <dc:format>image/svg+xml</dc:format>
    <dc:creator>
     <cc:Agent>
      <dc:title>Matplotlib v3.5.3, https://matplotlib.org/</dc:title>
     </cc:Agent>
    </dc:creator>
   </cc:Work>
  </rdf:RDF>
 </metadata>
 <defs>
  <style type="text/css">*{stroke-linejoin: round; stroke-linecap: butt}</style>
 </defs>
 <g id="figure_1">
  <g id="patch_1">
   <path d="M 0 432 
L 720 432 
L 720 0 
L 0 0 
z
" style="fill: #ffffff"/>
  </g>
  <g id="axes_1">
   <g id="patch_2">
    <path d="M 90 384.48 
L 648 384.48 
L 648 51.84 
L 90 51.84 
z
" style="fill: #eaeaf2"/>
   </g>
   <g id="matplotlib.axis_1">
    <g id="xtick_1">
     <g id="line2d_1">
      <path d="M 118.147867 384.48 
L 118.147867 51.84 
" clip-path="url(#paba27e47aa)" style="fill: none; stroke: #ffffff; stroke-linecap: round"/>
     </g>
     <g id="text_1">
      <!-- −2.0 -->
      <g style="fill: #262626" transform="translate(107.290523 401.853594)scale(0.11 -0.11)">
       <defs>
        <path id="ArialMT-2212" d="M 3381 1997 
L 356 1997 
L 356 2522 
L 3381 2522 
L 3381 1997 
z
" transform="scale(0.015625)"/>
        <path id="ArialMT-32" d="M 3222 541 
L 3222 0 
L 194 0 
Q 188 203 259 391 
Q 375 700 629 1000 
Q 884 1300 1366 1694 
Q 2113 2306 2375 2664 
Q 2638 3022 2638 3341 
Q 2638 3675 2398 3904 
Q 2159 4134 1775 4134 
Q 1369 4134 1125 3890 
Q 881 3647 878 3216 
L 300 3275 
Q 359 3922 746 4261 
Q 1134 4600 1788 4600 
Q 2447 4600 2831 4234 
Q 3216 3869 3216 3328 
Q 3216 3053 3103 2787 
Q 2991 2522 2730 2228 
Q 2469 1934 1863 1422 
Q 1356 997 1212 845 
Q 1069 694 975 541 
L 3222 541 
z
" transform="scale(0.015625)"/>
        <path id="ArialMT-2e" d="M 581 0 
L 581 641 
L 1222 641 
L 1222 0 
L 581 0 
z
" transform="scale(0.015625)"/>
        <path id="ArialMT-30" d="M 266 2259 
Q 266 3072 433 3567 
Q 600 4063 929 4331 
Q 1259 4600 1759 4600 
Q 2128 4600 2406 4451 
Q 2684 4303 2865 4023 
Q 3047 3744 3150 3342 
Q 3253 2941 3253 2259 
Q 3253 1453 3087 958 
Q 2922 463 2592 192 
Q 2263 -78 1759 -78 
Q 1097 -78 719 397 
Q 266 969 266 2259 
z
M 844 2259 
Q 844 1131 1108 757 
Q 1372 384 1759 384 
Q 2147 384 2411 759 
Q 2675 1134 2675 2259 
Q 2675 3391 2411 3762 
Q 2147 4134 1753 4134 
Q 1366 4134 1134 3806 
Q 844 3388 844 2259 
z
" transform="scale(0.015625)"/>
       </defs>
       <use xlink:href="#ArialMT-2212"/>
       <use xlink:href="#ArialMT-32" x="58.398438"/>
       <use xlink:href="#ArialMT-2e" x="114.013672"/>
       <use xlink:href="#ArialMT-30" x="141.796875"/>
      </g>
     </g>
    </g>
    <g id="xtick_2">
     <g id="line2d_2">
      <path d="M 183.078609 384.48 
L 183.078609 51.84 
" clip-path="url(#paba27e47aa)" style="fill: none; stroke: #ffffff; stroke-linecap: round"/>
     </g>
     <g id="text_2">
      <!-- −1.5 -->
      <g style="fill: #262626" transform="translate(172.221266 401.853594)scale(0.11 -0.11)">
       <defs>
        <path id="ArialMT-31" d="M 2384 0 
L 1822 0 
L 1822 3584 
Q 1619 3391 1289 3197 
Q 959 3003 697 2906 
L 697 3450 
Q 1169 3672 1522 3987 
Q 1875 4303 2022 4600 
L 2384 4600 
L 2384 0 
z
" transform="scale(0.015625)"/>
        <path id="ArialMT-35" d="M 266 1200 
L 856 1250 
Q 922 819 1161 601 
Q 1400 384 1738 384 
Q 2144 384 2425 690 
Q 2706 997 2706 1503 
Q 2706 1984 2436 2262 
Q 2166 2541 1728 2541 
Q 1456 2541 1237 2417 
Q 1019 2294 894 2097 
L 366 2166 
L 809 4519 
L 3088 4519 
L 3088 3981 
L 1259 3981 
L 1013 2750 
Q 1425 3038 1878 3038 
Q 2478 3038 2890 2622 
Q 3303 2206 3303 1553 
Q 3303 931 2941 478 
Q 2500 -78 1738 -78 
Q 1113 -78 717 272 
Q 322 622 266 1200 
z
" transform="scale(0.015625)"/>
       </defs>
       <use xlink:href="#ArialMT-2212"/>
       <use xlink:href="#ArialMT-31" x="58.398438"/>
       <use xlink:href="#ArialMT-2e" x="114.013672"/>
       <use xlink:href="#ArialMT-35" x="141.796875"/>
      </g>
     </g>
    </g>
    <g id="xtick_3">
     <g id="line2d_3">
      <path d="M 248.009352 384.48 
L 248.009352 51.84 
" clip-path="url(#paba27e47aa)" style="fill: none; stroke: #ffffff; stroke-linecap: round"/>
     </g>
     <g id="text_3">
      <!-- −1.0 -->
      <g style="fill: #262626" transform="translate(237.152009 401.853594)scale(0.11 -0.11)">
       <use xlink:href="#ArialMT-2212"/>
       <use xlink:href="#ArialMT-31" x="58.398438"/>
       <use xlink:href="#ArialMT-2e" x="114.013672"/>
       <use xlink:href="#ArialMT-30" x="141.796875"/>
      </g>
     </g>
    </g>
    <g id="xtick_4">
     <g id="line2d_4">
      <path d="M 312.940095 384.48 
L 312.940095 51.84 
" clip-path="url(#paba27e47aa)" style="fill: none; stroke: #ffffff; stroke-linecap: round"/>
     </g>
     <g id="text_4">
      <!-- −0.5 -->
      <g style="fill: #262626" transform="translate(302.082751 401.853594)scale(0.11 -0.11)">
       <use xlink:href="#ArialMT-2212"/>
       <use xlink:href="#ArialMT-30" x="58.398438"/>
       <use xlink:href="#ArialMT-2e" x="114.013672"/>
       <use xlink:href="#ArialMT-35" x="141.796875"/>
      </g>
     </g>
    </g>
    <g id="xtick_5">
     <g id="line2d_5">
      <path d="M 377.870838 384.48 
L 377.870838 51.84 
" clip-path="url(#paba27e47aa)" style="fill: none; stroke: #ffffff; stroke-linecap: round"/>
     </g>
     <g id="text_5">
      <!-- 0.0 -->
      <g style="fill: #262626" transform="translate(370.225838 401.853594)scale(0.11 -0.11)">
       <use xlink:href="#ArialMT-30"/>
       <use xlink:href="#ArialMT-2e" x="55.615234"/>
       <use xlink:href="#ArialMT-30" x="83.398438"/>
      </g>
     </g>
    </g>
    <g id="xtick_6">
     <g id="line2d_6">
      <path d="M 442.801581 384.48 
L 442.801581 51.84 
" clip-path="url(#paba27e47aa)" style="fill: none; stroke: #ffffff; stroke-linecap: round"/>
     </g>
     <g id="text_6">
      <!-- 0.5 -->
      <g style="fill: #262626" transform="translate(435.156581 401.853594)scale(0.11 -0.11)">
       <use xlink:href="#ArialMT-30"/>
       <use xlink:href="#ArialMT-2e" x="55.615234"/>
       <use xlink:href="#ArialMT-35" x="83.398438"/>
      </g>
     </g>
    </g>
    <g id="xtick_7">
     <g id="line2d_7">
      <path d="M 507.732324 384.48 
L 507.732324 51.84 
" clip-path="url(#paba27e47aa)" style="fill: none; stroke: #ffffff; stroke-linecap: round"/>
     </g>
     <g id="text_7">
      <!-- 1.0 -->
      <g style="fill: #262626" transform="translate(500.087324 401.853594)scale(0.11 -0.11)">
       <use xlink:href="#ArialMT-31"/>
       <use xlink:href="#ArialMT-2e" x="55.615234"/>
       <use xlink:href="#ArialMT-30" x="83.398438"/>
      </g>
     </g>
    </g>
    <g id="xtick_8">
     <g id="line2d_8">
      <path d="M 572.663067 384.48 
L 572.663067 51.84 
" clip-path="url(#paba27e47aa)" style="fill: none; stroke: #ffffff; stroke-linecap: round"/>
     </g>
     <g id="text_8">
      <!-- 1.5 -->
      <g style="fill: #262626" transform="translate(565.018067 401.853594)scale(0.11 -0.11)">
       <use xlink:href="#ArialMT-31"/>
       <use xlink:href="#ArialMT-2e" x="55.615234"/>
       <use xlink:href="#ArialMT-35" x="83.398438"/>
      </g>
     </g>
    </g>
    <g id="xtick_9">
     <g id="line2d_9">
      <path d="M 637.59381 384.48 
L 637.59381 51.84 
" clip-path="url(#paba27e47aa)" style="fill: none; stroke: #ffffff; stroke-linecap: round"/>
     </g>
     <g id="text_9">
      <!-- 2.0 -->
      <g style="fill: #262626" transform="translate(629.94881 401.853594)scale(0.11 -0.11)">
       <use xlink:href="#ArialMT-32"/>
       <use xlink:href="#ArialMT-2e" x="55.615234"/>
       <use xlink:href="#ArialMT-30" x="83.398438"/>
      </g>
     </g>
    </g>
   </g>
   <g id="matplotlib.axis_2">
    <g id="ytick_1">
     <g id="line2d_10">
      <path d="M 90 365.148743 
L 648 365.148743 
" clip-path="url(#paba27e47aa)" style="fill: none; stroke: #ffffff; stroke-linecap: round"/>
     </g>
     <g id="text_10">
      <!-- −1 -->
      <g style="fill: #262626" transform="translate(67.958281 369.08554)scale(0.11 -0.11)">
       <use xlink:href="#ArialMT-2212"/>
       <use xlink:href="#ArialMT-31" x="58.398438"/>
      </g>
     </g>
    </g>
    <g id="ytick_2">
     <g id="line2d_11">
      <path d="M 90 305.287232 
L 648 305.287232 
" clip-path="url(#paba27e47aa)" style="fill: none; stroke: #ffffff; stroke-linecap: round"/>
     </g>
     <g id="text_11">
      <!-- 0 -->
      <g style="fill: #262626" transform="translate(74.382969 309.224029)scale(0.11 -0.11)">
       <use xlink:href="#ArialMT-30"/>
      </g>
     </g>
    </g>
    <g id="ytick_3">
     <g id="line2d_12">
      <path d="M 90 245.425721 
L 648 245.425721 
" clip-path="url(#paba27e47aa)" style="fill: none; stroke: #ffffff; stroke-linecap: round"/>
     </g>
     <g id="text_12">
      <!-- 1 -->
      <g style="fill: #262626" transform="translate(74.382969 249.362518)scale(0.11 -0.11)">
       <use xlink:href="#ArialMT-31"/>
      </g>
     </g>
    </g>
    <g id="ytick_4">
     <g id="line2d_13">
      <path d="M 90 185.56421 
L 648 185.56421 
" clip-path="url(#paba27e47aa)" style="fill: none; stroke: #ffffff; stroke-linecap: round"/>
     </g>
     <g id="text_13">
      <!-- 2 -->
      <g style="fill: #262626" transform="translate(74.382969 189.501007)scale(0.11 -0.11)">
       <use xlink:href="#ArialMT-32"/>
      </g>
     </g>
    </g>
    <g id="ytick_5">
     <g id="line2d_14">
      <path d="M 90 125.702699 
L 648 125.702699 
" clip-path="url(#paba27e47aa)" style="fill: none; stroke: #ffffff; stroke-linecap: round"/>
     </g>
     <g id="text_14">
      <!-- 3 -->
      <g style="fill: #262626" transform="translate(74.382969 129.639496)scale(0.11 -0.11)">
       <defs>
        <path id="ArialMT-33" d="M 269 1209 
L 831 1284 
Q 928 806 1161 595 
Q 1394 384 1728 384 
Q 2125 384 2398 659 
Q 2672 934 2672 1341 
Q 2672 1728 2419 1979 
Q 2166 2231 1775 2231 
Q 1616 2231 1378 2169 
L 1441 2663 
Q 1497 2656 1531 2656 
Q 1891 2656 2178 2843 
Q 2466 3031 2466 3422 
Q 2466 3731 2256 3934 
Q 2047 4138 1716 4138 
Q 1388 4138 1169 3931 
Q 950 3725 888 3313 
L 325 3413 
Q 428 3978 793 4289 
Q 1159 4600 1703 4600 
Q 2078 4600 2393 4439 
Q 2709 4278 2876 4000 
Q 3044 3722 3044 3409 
Q 3044 3113 2884 2869 
Q 2725 2625 2413 2481 
Q 2819 2388 3044 2092 
Q 3269 1797 3269 1353 
Q 3269 753 2831 336 
Q 2394 -81 1725 -81 
Q 1122 -81 723 278 
Q 325 638 269 1209 
z
" transform="scale(0.015625)"/>
       </defs>
       <use xlink:href="#ArialMT-33"/>
      </g>
     </g>
    </g>
    <g id="ytick_6">
     <g id="line2d_15">
      <path d="M 90 65.841188 
L 648 65.841188 
" clip-path="url(#paba27e47aa)" style="fill: none; stroke: #ffffff; stroke-linecap: round"/>
     </g>
     <g id="text_15">
      <!-- 4 -->
      <g style="fill: #262626" transform="translate(74.382969 69.777985)scale(0.11 -0.11)">
       <defs>
        <path id="ArialMT-34" d="M 2069 0 
L 2069 1097 
L 81 1097 
L 81 1613 
L 2172 4581 
L 2631 4581 
L 2631 1613 
L 3250 1613 
L 3250 1097 
L 2631 1097 
L 2631 0 
L 2069 0 
z
M 2069 1613 
L 2069 3678 
L 634 1613 
L 2069 1613 
z
" transform="scale(0.015625)"/>
       </defs>
       <use xlink:href="#ArialMT-34"/>
      </g>
     </g>
    </g>
   </g>
   <g id="PathCollection_1">
    <defs>
     <path id="mbeb3279a47" d="M 0 3 
C 0.795609 3 1.55874 2.683901 2.12132 2.12132 
C 2.683901 1.55874 3 0.795609 3 0 
C 3 -0.795609 2.683901 -1.55874 2.12132 -2.12132 
C 1.55874 -2.683901 0.795609 -3 0 -3 
C -0.795609 -3 -1.55874 -2.683901 -2.12132 -2.12132 
C -2.683901 -1.55874 -3 -0.795609 -3 0 
C -3 0.795609 -2.683901 1.55874 -2.12132 2.12132 
C -1.55874 2.683901 -0.795609 3 0 3 
z
" style="stroke: #4c72b0"/>
    </defs>
    <g clip-path="url(#paba27e47aa)">
     <use xlink:href="#mbeb3279a47" x="307.554739" y="211.846406" style="fill: #4c72b0; stroke: #4c72b0"/>
     <use xlink:href="#mbeb3279a47" x="289.372833" y="186.454949" style="fill: #4c72b0; stroke: #4c72b0"/>
     <use xlink:href="#mbeb3279a47" x="431.506229" y="66.96" style="fill: #4c72b0; stroke: #4c72b0"/>
     <use xlink:href="#mbeb3279a47" x="146.138211" y="264.346149" style="fill: #4c72b0; stroke: #4c72b0"/>
     <use xlink:href="#mbeb3279a47" x="399.562901" y="185.589951" style="fill: #4c72b0; stroke: #4c72b0"/>
     <use xlink:href="#mbeb3279a47" x="373.317894" y="188.976316" style="fill: #4c72b0; stroke: #4c72b0"/>
     <use xlink:href="#mbeb3279a47" x="394.698289" y="114.411022" style="fill: #4c72b0; stroke: #4c72b0"/>
     <use xlink:href="#mbeb3279a47" x="516.896649" y="255.679399" style="fill: #4c72b0; stroke: #4c72b0"/>
     <use xlink:href="#mbeb3279a47" x="264.07192" y="131.433242" style="fill: #4c72b0; stroke: #4c72b0"/>
     <use xlink:href="#mbeb3279a47" x="180.033358" y="177.125533" style="fill: #4c72b0; stroke: #4c72b0"/>
     <use xlink:href="#mbeb3279a47" x="304.18873" y="164.589335" style="fill: #4c72b0; stroke: #4c72b0"/>
     <use xlink:href="#mbeb3279a47" x="407.651973" y="188.096352" style="fill: #4c72b0; stroke: #4c72b0"/>
     <use xlink:href="#mbeb3279a47" x="622.636364" y="222.306008" style="fill: #4c72b0; stroke: #4c72b0"/>
     <use xlink:href="#mbeb3279a47" x="426.685771" y="179.494253" style="fill: #4c72b0; stroke: #4c72b0"/>
     <use xlink:href="#mbeb3279a47" x="415.112515" y="206.590566" style="fill: #4c72b0; stroke: #4c72b0"/>
     <use xlink:href="#mbeb3279a47" x="350.903802" y="163.575281" style="fill: #4c72b0; stroke: #4c72b0"/>
     <use xlink:href="#mbeb3279a47" x="426.909132" y="254.780878" style="fill: #4c72b0; stroke: #4c72b0"/>
     <use xlink:href="#mbeb3279a47" x="486.458415" y="159.577131" style="fill: #4c72b0; stroke: #4c72b0"/>
     <use xlink:href="#mbeb3279a47" x="354.433437" y="174.750827" style="fill: #4c72b0; stroke: #4c72b0"/>
     <use xlink:href="#mbeb3279a47" x="432.978858" y="169.529706" style="fill: #4c72b0; stroke: #4c72b0"/>
     <use xlink:href="#mbeb3279a47" x="321.417453" y="213.918213" style="fill: #4c72b0; stroke: #4c72b0"/>
     <use xlink:href="#mbeb3279a47" x="246.928905" y="369.36" style="fill: #4c72b0; stroke: #4c72b0"/>
     <use xlink:href="#mbeb3279a47" x="335.223028" y="158.704949" style="fill: #4c72b0; stroke: #4c72b0"/>
     <use xlink:href="#mbeb3279a47" x="244.283626" y="234.031681" style="fill: #4c72b0; stroke: #4c72b0"/>
     <use xlink:href="#mbeb3279a47" x="277.27234" y="225.853401" style="fill: #4c72b0; stroke: #4c72b0"/>
     <use xlink:href="#mbeb3279a47" x="449.615413" y="119.844053" style="fill: #4c72b0; stroke: #4c72b0"/>
     <use xlink:href="#mbeb3279a47" x="118.040082" y="345.514766" style="fill: #4c72b0; stroke: #4c72b0"/>
     <use xlink:href="#mbeb3279a47" x="300.652601" y="196.959447" style="fill: #4c72b0; stroke: #4c72b0"/>
     <use xlink:href="#mbeb3279a47" x="314.356884" y="258.01759" style="fill: #4c72b0; stroke: #4c72b0"/>
     <use xlink:href="#mbeb3279a47" x="377.570858" y="124.835306" style="fill: #4c72b0; stroke: #4c72b0"/>
     <use xlink:href="#mbeb3279a47" x="497.520017" y="121.69557" style="fill: #4c72b0; stroke: #4c72b0"/>
     <use xlink:href="#mbeb3279a47" x="487.290827" y="146.178928" style="fill: #4c72b0; stroke: #4c72b0"/>
     <use xlink:href="#mbeb3279a47" x="383.114645" y="139.043436" style="fill: #4c72b0; stroke: #4c72b0"/>
     <use xlink:href="#mbeb3279a47" x="217.033492" y="172.092377" style="fill: #4c72b0; stroke: #4c72b0"/>
     <use xlink:href="#mbeb3279a47" x="330.484382" y="144.29748" style="fill: #4c72b0; stroke: #4c72b0"/>
     <use xlink:href="#mbeb3279a47" x="125.383749" y="213.260335" style="fill: #4c72b0; stroke: #4c72b0"/>
     <use xlink:href="#mbeb3279a47" x="283.107016" y="155.399995" style="fill: #4c72b0; stroke: #4c72b0"/>
     <use xlink:href="#mbeb3279a47" x="438.612249" y="122.318129" style="fill: #4c72b0; stroke: #4c72b0"/>
     <use xlink:href="#mbeb3279a47" x="199.935929" y="114.424192" style="fill: #4c72b0; stroke: #4c72b0"/>
     <use xlink:href="#mbeb3279a47" x="341.41742" y="194.084299" style="fill: #4c72b0; stroke: #4c72b0"/>
     <use xlink:href="#mbeb3279a47" x="377.198156" y="121.454328" style="fill: #4c72b0; stroke: #4c72b0"/>
     <use xlink:href="#mbeb3279a47" x="282.45641" y="212.680876" style="fill: #4c72b0; stroke: #4c72b0"/>
     <use xlink:href="#mbeb3279a47" x="252.25842" y="224.645995" style="fill: #4c72b0; stroke: #4c72b0"/>
     <use xlink:href="#mbeb3279a47" x="115.363636" y="224.183265" style="fill: #4c72b0; stroke: #4c72b0"/>
     <use xlink:href="#mbeb3279a47" x="179.915184" y="138.650145" style="fill: #4c72b0; stroke: #4c72b0"/>
     <use xlink:href="#mbeb3279a47" x="427.331182" y="218.021121" style="fill: #4c72b0; stroke: #4c72b0"/>
     <use xlink:href="#mbeb3279a47" x="357.656599" y="187.275052" style="fill: #4c72b0; stroke: #4c72b0"/>
     <use xlink:href="#mbeb3279a47" x="255.040053" y="339.048525" style="fill: #4c72b0; stroke: #4c72b0"/>
     <use xlink:href="#mbeb3279a47" x="275.964634" y="225.582827" style="fill: #4c72b0; stroke: #4c72b0"/>
     <use xlink:href="#mbeb3279a47" x="443.139221" y="195.182159" style="fill: #4c72b0; stroke: #4c72b0"/>
     <use xlink:href="#mbeb3279a47" x="310.106518" y="162.52531" style="fill: #4c72b0; stroke: #4c72b0"/>
     <use xlink:href="#mbeb3279a47" x="228.071718" y="267.603812" style="fill: #4c72b0; stroke: #4c72b0"/>
     <use xlink:href="#mbeb3279a47" x="344.723694" y="179.607391" style="fill: #4c72b0; stroke: #4c72b0"/>
     <use xlink:href="#mbeb3279a47" x="383.593834" y="124.804178" style="fill: #4c72b0; stroke: #4c72b0"/>
     <use xlink:href="#mbeb3279a47" x="416.74877" y="240.082483" style="fill: #4c72b0; stroke: #4c72b0"/>
     <use xlink:href="#mbeb3279a47" x="254.690726" y="153.354527" style="fill: #4c72b0; stroke: #4c72b0"/>
     <use xlink:href="#mbeb3279a47" x="123.065721" y="81.892454" style="fill: #4c72b0; stroke: #4c72b0"/>
     <use xlink:href="#mbeb3279a47" x="374.513919" y="187.650982" style="fill: #4c72b0; stroke: #4c72b0"/>
     <use xlink:href="#mbeb3279a47" x="261.683767" y="189.42408" style="fill: #4c72b0; stroke: #4c72b0"/>
     <use xlink:href="#mbeb3279a47" x="322.381025" y="223.353585" style="fill: #4c72b0; stroke: #4c72b0"/>
     <use xlink:href="#mbeb3279a47" x="356.846264" y="195.513193" style="fill: #4c72b0; stroke: #4c72b0"/>
     <use xlink:href="#mbeb3279a47" x="338.241008" y="251.155665" style="fill: #4c72b0; stroke: #4c72b0"/>
     <use xlink:href="#mbeb3279a47" x="402.421152" y="142.002989" style="fill: #4c72b0; stroke: #4c72b0"/>
     <use xlink:href="#mbeb3279a47" x="247.875595" y="306.119307" style="fill: #4c72b0; stroke: #4c72b0"/>
     <use xlink:href="#mbeb3279a47" x="301.66682" y="142.888939" style="fill: #4c72b0; stroke: #4c72b0"/>
     <use xlink:href="#mbeb3279a47" x="198.967162" y="185.007498" style="fill: #4c72b0; stroke: #4c72b0"/>
     <use xlink:href="#mbeb3279a47" x="537.89655" y="162.786905" style="fill: #4c72b0; stroke: #4c72b0"/>
     <use xlink:href="#mbeb3279a47" x="441.931509" y="141.111651" style="fill: #4c72b0; stroke: #4c72b0"/>
    </g>
   </g>
   <g id="patch_3">
    <path d="M 90 384.48 
L 90 51.84 
" style="fill: none; stroke: #ffffff; stroke-width: 1.25; stroke-linejoin: miter; stroke-linecap: square"/>
   </g>
   <g id="patch_4">
    <path d="M 648 384.48 
L 648 51.84 
" style="fill: none; stroke: #ffffff; stroke-width: 1.25; stroke-linejoin: miter; stroke-linecap: square"/>
   </g>
   <g id="patch_5">
    <path d="M 90 384.48 
L 648 384.48 
" style="fill: none; stroke: #ffffff; stroke-width: 1.25; stroke-linejoin: miter; stroke-linecap: square"/>
   </g>
   <g id="patch_6">
    <path d="M 90 51.84 
L 648 51.84 
" style="fill: none; stroke: #ffffff; stroke-width: 1.25; stroke-linejoin: miter; stroke-linecap: square"/>
   </g>
  </g>
 </g>
 <defs>
  <clipPath id="paba27e47aa">
   <rect x="90" y="51.84" width="558" height="332.64"/>
  </clipPath>
 </defs>
</svg>
